<svg width="24" height="24" viewBox="0 0 24 24" fill="none" xmlns="http://www.w3.org/2000/svg">
<g clip-path="url(#clip0_23_23)">
<path d="M8.16621 22.5292V17.3542L4.30371 20.2042C5.39121 21.2167 6.70371 22.0042 8.16621 22.5292ZM15.6662 22.5292C17.1287 22.0042 18.4412 21.2167 19.5287 20.2042L15.6662 17.3167V22.5292ZM1.30371 15.6667C1.41621 16.0417 1.56621 16.3792 1.75371 16.7542L3.21621 15.6667H1.30371ZM20.6162 15.6667L22.0787 16.7542C22.2287 16.4167 22.3787 16.0417 22.5287 15.6667H20.6162Z" fill="#2A5F9E"/>
<path d="M8.7291 14.1667H0.891602C1.0041 14.6917 1.1541 15.1792 1.3041 15.6667H3.2166L1.7541 16.7542C2.0541 17.3917 2.3916 17.9542 2.8041 18.5167L6.6666 15.6667H8.1666V16.4167L3.7791 19.6417L4.3041 20.1667L8.1666 17.3542V22.5292C8.6541 22.7167 9.1416 22.8292 9.6666 22.9417V14.1667H8.7291ZM22.9416 14.1667H14.1666V22.9417C14.6916 22.8292 15.1791 22.6792 15.6666 22.5292V17.3542L19.5291 20.1667C20.0541 19.6792 20.5041 19.1542 20.9541 18.5917L16.9416 15.6667H19.4916L21.7791 17.3542C21.8916 17.1667 22.0041 16.9417 22.0791 16.7542L20.6166 15.6667H22.5291C22.6791 15.1792 22.8291 14.6917 22.9416 14.1667Z" fill="white"/>
<path d="M2.80371 18.5167C3.10371 18.9292 3.40371 19.3042 3.74121 19.6792L8.16621 16.4542V15.7042H6.66621L2.80371 18.5167ZM16.9787 15.6667L20.9912 18.5917C21.1412 18.4042 21.2537 18.2167 21.4037 18.0292C21.4412 17.9917 21.4412 17.9542 21.4787 17.9542C21.5912 17.7667 21.7412 17.5417 21.8537 17.3542L19.4912 15.6667H16.9787Z" fill="#ED4C5C"/>
<path d="M15.6662 1.30417V6.47917L19.5287 3.62917C18.4412 2.61667 17.1287 1.82917 15.6662 1.30417ZM8.16621 1.30417C6.70371 1.82917 5.39121 2.61667 4.30371 3.62917L8.16621 6.51667V1.30417ZM22.5287 8.16667C22.4162 7.79167 22.2662 7.45417 22.0787 7.07917L20.6162 8.16667H22.5287ZM3.21621 8.16667L1.75371 7.07917C1.60371 7.45417 1.45371 7.79167 1.30371 8.16667H3.21621Z" fill="#2A5F9E"/>
<path d="M15.1041 9.66666H22.9041C22.7916 9.14166 22.6416 8.65416 22.4916 8.16666H20.5791L22.0416 7.07916C21.7416 6.44166 21.4041 5.87916 20.9916 5.31666L17.1666 8.16666H15.6666V7.41666L20.0541 4.19166L19.5291 3.66666L15.6666 6.47916V1.30416C15.1791 1.11666 14.6916 1.00416 14.1666 0.891663V9.66666H15.1041ZM0.891602 9.66666H9.6666V0.891663C9.1416 1.00416 8.6541 1.15416 8.1666 1.30416V6.47916L4.3041 3.66666C3.7791 4.15416 3.3291 4.67916 2.8791 5.24166L6.8916 8.16666H4.3416L2.0541 6.47916C1.9416 6.66666 1.8291 6.89166 1.7541 7.07916L3.2166 8.16666H1.3041C1.1541 8.65416 1.0041 9.14166 0.891602 9.66666Z" fill="white"/>
<path d="M21.0291 5.31664C20.7291 4.90414 20.4291 4.52914 20.0916 4.15414L15.6666 7.37914V8.12914H17.1666L21.0291 5.31664ZM6.8541 8.16664L2.8791 5.24164C2.7291 5.42914 2.6166 5.61664 2.4666 5.80414C2.4291 5.84164 2.4291 5.87914 2.3916 5.87914C2.2791 6.06664 2.1291 6.29164 2.0166 6.47914L4.3041 8.16664H6.8541Z" fill="#ED4C5C"/>
<path d="M22.942 9.66666H14.167V0.891656C13.4545 0.741656 12.7045 0.666656 11.917 0.666656C11.1295 0.666656 10.3795 0.741656 9.66699 0.891656V9.66666H0.891992C0.741992 10.3792 0.666992 11.1292 0.666992 11.9167C0.666992 12.7042 0.741992 13.4542 0.891992 14.1667H9.66699V22.9417C10.3795 23.0917 11.1295 23.1667 11.917 23.1667C12.7045 23.1667 13.4545 23.0917 14.167 22.9417V14.1667H22.942C23.092 13.4542 23.167 12.7042 23.167 11.9167C23.167 11.1292 23.092 10.3792 22.942 9.66666Z" fill="#ED4C5C"/>
</g>
<defs>
<clipPath id="clip0_23_23">
<rect width="24" height="24" fill="white"/>
</clipPath>
</defs>
</svg>
