<svg width="24" height="24" viewBox="0 0 24 24" fill="none" xmlns="http://www.w3.org/2000/svg">
<g clip-path="url(#clip0_23_15)">
<path d="M23.0543 10.4167C23.0168 10.0417 22.9418 9.66666 22.8668 9.29166H0.966797C0.891797 9.66666 0.816797 10.0417 0.779297 10.4167H23.0543ZM0.779297 13.4167C0.816797 13.7917 0.891797 14.1667 0.966797 14.5417H22.8293C22.9043 14.1667 22.9793 13.7917 23.0168 13.4167H0.779297Z" fill="white"/>
<path d="M7.41699 1.60416C7.04199 1.75416 6.66699 1.97916 6.29199 2.16666V21.6667C6.66699 21.8917 7.04199 22.0792 7.41699 22.2292V1.60416ZM10.417 0.779156V23.0917L11.542 23.2042V0.666656C11.167 0.666656 10.792 0.704156 10.417 0.779156Z" fill="white"/>
<path d="M0.666992 11.9167C0.666992 12.4417 0.704492 12.9292 0.779492 13.4167H23.092C23.167 12.9292 23.2045 12.4417 23.2045 11.9167C23.2045 11.3917 23.167 10.9042 23.092 10.4167H0.779492C0.704492 10.9042 0.666992 11.3917 0.666992 11.9167Z" fill="#428BC1"/>
<path d="M7.41699 22.2292C8.35449 22.6417 9.36699 22.9417 10.417 23.0542V0.779175C9.36699 0.929175 8.35449 1.19167 7.41699 1.60417V22.2292Z" fill="#428BC1"/>
<path d="M6.2918 9.29166V2.16666C3.6668 3.70416 1.7168 6.25416 0.966797 9.29166H6.2918ZM6.2918 14.5417V21.6667C3.6668 20.1292 1.7168 17.5792 0.966797 14.5417H6.2918ZM11.9168 0.666656H11.5418V9.29166H22.8668C21.6668 4.34166 17.2418 0.666656 11.9168 0.666656ZM11.5418 14.5417V23.1667H11.9168C17.2418 23.1667 21.6668 19.4917 22.8668 14.5417H11.5418Z" fill="#ED4C5C"/>
</g>
<defs>
<clipPath id="clip0_23_15">
<rect width="24" height="24" fill="white"/>
</clipPath>
</defs>
</svg>
